<svg xmlns="http://www.w3.org/2000/svg" xmlns:xlink="http://www.w3.org/1999/xlink" viewBox="0 0 882.42937 193.32741"><defs><style>.cls-1{fill:#38bdf8;}.cls-2{fill:url(#linear-gradient);}.cls-3{fill:url(#linear-gradient-2);}.cls-4{fill:url(#linear-gradient-3);}.cls-5{fill:url(#linear-gradient-4);}.cls-6{fill:url(#linear-gradient-5);}.cls-7{fill:url(#linear-gradient-6);}.cls-8{fill:url(#linear-gradient-7);}.cls-9{fill:url(#linear-gradient-8);}</style><linearGradient id="linear-gradient" x1="97.08943" y1="193.04131" x2="97.08943" y2="9.84559" gradientTransform="translate(28.42437 -21.82198) rotate(15)" gradientUnits="userSpaceOnUse"><stop offset="0" stop-color="#cbd5e1"/><stop offset="1" stop-color="#f1f5f9"/></linearGradient><linearGradient id="linear-gradient-2" x1="277.65181" y1="161.33636" x2="277.65181" y2="33.72157" gradientTransform="matrix(1, 0, 0, 1, 0, 0)" xlink:href="#linear-gradient"/><linearGradient id="linear-gradient-3" x1="403.91921" y1="153.20214" x2="403.91921" y2="61.60103" gradientTransform="matrix(1, 0, 0, 1, 0, 0)" xlink:href="#linear-gradient"/><linearGradient id="linear-gradient-4" x1="503.46821" y1="154.74845" x2="503.46821" y2="72.09364" gradientTransform="matrix(1, 0, 0, 1, 0, 0)" xlink:href="#linear-gradient"/><linearGradient id="linear-gradient-5" x1="566.41172" y1="155.05941" x2="566.41172" y2="52.52213" gradientTransform="matrix(1, 0, 0, 1, 0, 0)" xlink:href="#linear-gradient"/><linearGradient id="linear-gradient-6" x1="643.01312" y1="147.64229" x2="643.01312" y2="46.02435" gradientTransform="matrix(1, 0, 0, 1, 0, 0)" xlink:href="#linear-gradient"/><linearGradient id="linear-gradient-7" x1="753.22878" y1="158.61422" x2="753.22878" y2="68.00672" gradientTransform="matrix(1, 0, 0, 1, 0, 0)" xlink:href="#linear-gradient"/><linearGradient id="linear-gradient-8" x1="846.03348" y1="157.06791" x2="846.03348" y2="84.27614" gradientTransform="matrix(1, 0, 0, 1, 0, 0)" xlink:href="#linear-gradient"/></defs><g id="DarkMode"><rect class="cls-1" x="15.21917" y="15.21917" width="162.88906" height="162.88906" rx="17.67886" transform="translate(30.6865 -23.06412) rotate(16.1426)"/><rect class="cls-2" x="18.34991" y="18.3018" width="157.47903" height="157.47903" rx="21.55022" transform="matrix(0.96593, -0.25882, 0.25882, 0.96593, -21.80789, 28.43519)"/><path class="cls-1" d="M80.86191,73.88547l7.76893-56.1104-7.33845,1.96342-7.49725,54.147-.96924,7L67.5643,118.886H113.303L105.34567,176.354l7.33881-1.96643,7.68475-55.50165.96918-7L126.6,73.88547ZM75.60043,111.886l4.2923-31.00049h38.67206L114.27231,111.886Z"/><path class="cls-3" d="M341.4592,158.96448H321.42557V93.66629L286.17708,155.6768a8.65758,8.65758,0,0,1-3.63219,3.59375,10.63376,10.63376,0,0,1-5.008,1.22281,10.03047,10.03047,0,0,1-4.855-1.22281,8.765,8.765,0,0,1-3.55531-3.59375L233.72428,93.66629v65.29819H213.84442V57.80566a9.97506,9.97506,0,0,1,7.34054-9.71075,10.57349,10.57349,0,0,1,3.21153-.26763,10.71892,10.71892,0,0,1,3.0962.6883,9.34,9.34,0,0,1,4.77886,4.09056l45.2653,78.67958,45.2653-78.67958a9.72645,9.72645,0,0,1,4.85575-4.129,10.35168,10.35168,0,0,1,6.46076-.38222,9.97359,9.97359,0,0,1,5.27567,3.59375,9.746,9.746,0,0,1,2.06487,6.117Z"/><path class="cls-4" d="M449.71977,148.94767a10.25448,10.25448,0,0,1-.76444,3.97671,9.76362,9.76362,0,0,1-9.09934,6.0401H394.89676a39.61464,39.61464,0,0,1-7.83735-.84132,36.925,36.925,0,0,1-8.21957-2.714,42.49915,42.49915,0,0,1-7.83735-4.74041,30.181,30.181,0,0,1-6.61381-6.95832,35.64085,35.64085,0,0,1-4.54967-9.44311,39.40109,39.40109,0,0,1-1.72035-12.08095V76.30967h19.87985v45.87671a17.4687,17.4687,0,0,0,1.33814,6.996,16.25467,16.25467,0,0,0,3.6322,5.31411,15.74826,15.74826,0,0,0,5.39026,3.403,18.55565,18.55565,0,0,0,6.69069,1.18511h34.79012v-62.775h19.87985Z"/><path class="cls-5" d="M544.83406,131.0558a30.38748,30.38748,0,0,1-1.2997,9.21393,26.90726,26.90726,0,0,1-3.44145,7.1875,23.41066,23.41066,0,0,1-4.9696,5.27567,29.0249,29.0249,0,0,1-5.92551,3.55531,30.44645,30.44645,0,0,1-6.27,2.02643,29.92252,29.92252,0,0,1-6.0024.64984H463.09672V139.08463h53.67561q4.05213,0,6.117-2.06488a8.07233,8.07233,0,0,0,2.06487-5.96395q-.3837-7.95121-8.02883-7.952H486.11122a24.75548,24.75548,0,0,1-11.16347-2.294,22.81136,22.81136,0,0,1-7.45513-5.734,21.86291,21.86291,0,0,1-4.12827-7.41669,24.60417,24.60417,0,0,1-1.262-7.41742,24.02983,24.02983,0,0,1,2.3702-11.20118,22.37786,22.37786,0,0,1,5.964-7.379,23.41247,23.41247,0,0,1,7.79891-4.09057,27.50273,27.50273,0,0,1,7.87579-1.26125h48.85906V96.18953h-48.706a6.79711,6.79711,0,0,0-2.40865.34377,2.84026,2.84026,0,0,0-1.2997.91748,2.54416,2.54416,0,0,0-.49681,1.22355,10.65524,10.65524,0,0,0-.07688,1.262,4.54125,4.54125,0,0,0,.4591,1.91109,2.3933,2.3933,0,0,0,.95592.99437,3.05853,3.05853,0,0,0,1.2997.34377c.4835.02662.95591.03845,1.41428.03845h30.81415a28.15473,28.15473,0,0,1,12.99843,2.75242,25.87567,25.87567,0,0,1,8.64023,6.91988,27.48228,27.48228,0,0,1,4.77885,9.06089A31.36263,31.36263,0,0,1,544.83406,131.0558Z"/><path class="cls-6" d="M576.352,59.33527H556.47143V41.36652H576.352Zm0,99.62921H556.47143V76.30967H576.352Z"/><path class="cls-7" d="M665.07207,60.3289H620.26588q-4.05323,0-6.117,2.02643a7.94034,7.94034,0,0,0-2.06414,5.92551v90.68364H592.20416V68.28084a29.96035,29.96035,0,0,1,1.30043-9.17549,26.26868,26.26868,0,0,1,3.47842-7.14906,24.11054,24.11054,0,0,1,5.00878-5.27566,28.98474,28.98474,0,0,1,5.92551-3.55531,30.66254,30.66254,0,0,1,6.23159-2.02643,29.45257,29.45257,0,0,1,5.96395-.64985h44.95923Zm28.597,98.63558H673.7892l-.153-62.77495H620.11284V76.30967h73.70925Zm0-98.63558H673.7892V40.75511h19.87985Z"/><path class="cls-8" d="M798.53253,103.68236a30.75532,30.75532,0,0,1-1.45273,8.90787,26.63046,26.63046,0,0,1-4.70271,8.87015,26.22666,26.22666,0,0,1-8.4872,6.843,27.08153,27.08153,0,0,1-12.7308,2.75243H735.29846V112.1703h35.86063a7.9651,7.9651,0,0,0,6.27-2.48554,8.90734,8.90734,0,0,0,2.21717-6.15469,7.77917,7.77917,0,0,0-2.4848-6.117,8.70585,8.70585,0,0,0-6.0024-2.2179H735.29846a7.96687,7.96687,0,0,0-6.27,2.48553,8.90521,8.90521,0,0,0-2.21717,6.1547v27.75565a7.87,7.87,0,0,0,2.48479,6.19388,8.90451,8.90451,0,0,0,6.15544,2.21717h35.70759v18.96238H735.29846a30.71262,30.71262,0,0,1-8.90786-1.45273,26.57365,26.57365,0,0,1-8.86942-4.7027,26.1953,26.1953,0,0,1-6.843-8.4872,27.06626,27.06626,0,0,1-2.75317-12.7308V103.68236a30.73333,30.73333,0,0,1,1.45273-8.90712,26.61135,26.61135,0,0,1,4.70271-8.87016,26.23015,26.23015,0,0,1,8.4872-6.843,27.07527,27.07527,0,0,1,12.73079-2.75243h35.86063A30.76672,30.76672,0,0,1,780.067,77.7624a26.64639,26.64639,0,0,1,8.86941,4.702,26.25553,26.25553,0,0,1,6.84373,8.4872A27.08357,27.08357,0,0,1,798.53253,103.68236Z"/><path class="cls-9" d="M882.42937,96.18953H837.69932q-4.05433,0-6.117,2.02643a7.93948,7.93948,0,0,0-2.06488,5.92551v54.823H809.6376v-54.823a29.98369,29.98369,0,0,1,1.29969-9.17549,26.2703,26.2703,0,0,1,3.47916-7.14906,24.12489,24.12489,0,0,1,5.008-5.27566,28.96988,28.96988,0,0,1,5.92625-3.55531,30.40232,30.40232,0,0,1,6.27-2.02643,29.67825,29.67825,0,0,1,5.92551-.64985h44.88309Z"/></g></svg>