<svg xmlns="http://www.w3.org/2000/svg" xmlns:xlink="http://www.w3.org/1999/xlink" viewBox="0 0 887.92093 193.32741"><defs><style>.cls-1{fill:#0891b2;}.cls-2{fill:url(#linear-gradient);}.cls-3{fill:url(#linear-gradient-2);}.cls-4{fill:url(#linear-gradient-3);}.cls-5{fill:url(#linear-gradient-4);}.cls-6{fill:url(#linear-gradient-5);}.cls-7{fill:url(#linear-gradient-6);}.cls-8{fill:url(#linear-gradient-7);}.cls-9{fill:url(#linear-gradient-8);}</style><linearGradient id="linear-gradient" x1="97.08943" y1="7.87832" x2="97.08943" y2="191.07404" gradientTransform="translate(28.42437 -21.82198) rotate(15)" gradientUnits="userSpaceOnUse"><stop offset="0" stop-color="#27272a"/><stop offset="1" stop-color="#18181b"/></linearGradient><linearGradient id="linear-gradient-2" x1="278.17599" y1="28.82759" x2="278.17599" y2="157.49055" gradientTransform="matrix(1, 0, 0, 1, 0, 0)" xlink:href="#linear-gradient"/><linearGradient id="linear-gradient-3" x1="405.4805" y1="65.8378" x2="405.4805" y2="158.19129" gradientTransform="matrix(1, 0, 0, 1, 0, 0)" xlink:href="#linear-gradient"/><linearGradient id="linear-gradient-4" x1="505.84715" y1="71.68408" x2="505.84715" y2="155.01778" gradientTransform="matrix(1, 0, 0, 1, 0, 0)" xlink:href="#linear-gradient"/><linearGradient id="linear-gradient-5" x1="569.30765" y1="84.8594" x2="569.30765" y2="154.64421" gradientTransform="matrix(1, 0, 0, 1, 0, 0)" xlink:href="#linear-gradient"/><linearGradient id="linear-gradient-6" x1="646.53822" y1="44.64219" x2="646.53822" y2="154.4298" gradientTransform="matrix(1, 0, 0, 1, 0, 0)" xlink:href="#linear-gradient"/><linearGradient id="linear-gradient-7" x1="757.65914" y1="80.64837" x2="757.65914" y2="155.14144" gradientTransform="matrix(1, 0, 0, 1, 0, 0)" xlink:href="#linear-gradient"/><linearGradient id="linear-gradient-8" x1="851.22611" y1="77.1406" x2="851.22611" y2="157.87872" gradientTransform="matrix(1, 0, 0, 1, 0, 0)" xlink:href="#linear-gradient"/></defs><g id="LightMode"><rect class="cls-1" x="15.21917" y="15.21917" width="162.88906" height="162.88906" rx="17.67886" transform="translate(30.6865 -23.06412) rotate(16.1426)"/><rect class="cls-2" x="18.34991" y="18.3018" width="157.47903" height="157.47903" rx="21.55022" transform="translate(-21.80789 28.43519) rotate(-15)"/><path class="cls-1" d="M80.86191,73.88547l7.76893-56.1104-7.33845,1.96342-7.49725,54.147-.96924,7L67.5643,118.886H113.303L105.34567,176.354l7.33881-1.96643,7.68475-55.50165.96918-7L126.6,73.88547ZM75.60043,111.886l4.2923-31.00049h38.67206L114.27231,111.886Z"/><path class="cls-3" d="M342.50747,158.95191H322.30929V93.11738l-35.538,62.51985a8.72862,8.72862,0,0,1-3.662,3.62326,10.7211,10.7211,0,0,1-5.04917,1.23286,10.11293,10.11293,0,0,1-4.89488-1.23286,8.83705,8.83705,0,0,1-3.58451-3.62326l-35.693-62.51985v65.83453H213.84451V56.96221a10.057,10.057,0,0,1,7.40083-9.79051,10.65984,10.65984,0,0,1,3.23791-.26982,10.80683,10.80683,0,0,1,3.12163.69394A9.41679,9.41679,0,0,1,232.423,51.72l45.63709,79.32582L323.69718,51.72a9.80642,9.80642,0,0,1,4.89562-4.16292,10.43678,10.43678,0,0,1,6.51384-.38536,10.05547,10.05547,0,0,1,5.319,3.62327,9.82606,9.82606,0,0,1,2.08184,6.16724Z"/><path class="cls-4" d="M451.65724,148.85282a10.3388,10.3388,0,0,1-.77071,4.00937,9.84383,9.84383,0,0,1-9.17408,6.08972H396.38394a39.9398,39.9398,0,0,1-7.90173-.84824,37.22832,37.22832,0,0,1-8.28708-2.73627,42.84813,42.84813,0,0,1-7.90172-4.77935,30.42881,30.42881,0,0,1-6.66813-7.01547,35.93354,35.93354,0,0,1-4.587-9.52068,39.7243,39.7243,0,0,1-1.73449-12.18018V75.61821H379.3469v46.25351a17.6124,17.6124,0,0,0,1.34912,7.05349,16.38835,16.38835,0,0,0,3.662,5.35776,15.878,15.878,0,0,0,5.43453,3.431,18.70814,18.70814,0,0,0,6.74565,1.19484H431.6141V75.61821h20.04314Z"/><path class="cls-5" d="M547.55276,130.814a30.63737,30.63737,0,0,1-1.31037,9.28961,27.128,27.128,0,0,1-3.46973,7.24654,23.60269,23.60269,0,0,1-5.01041,5.319,29.26306,29.26306,0,0,1-5.97418,3.58451,30.69564,30.69564,0,0,1-6.32153,2.04307,30.1679,30.1679,0,0,1-6.0517.65519H465.14406V138.90877h54.11649q4.0854,0,6.16723-2.08184a8.13861,8.13861,0,0,0,2.08183-6.01294q-.38685-8.01651-8.09477-8.01726H488.3476a24.95877,24.95877,0,0,1-11.25517-2.31289,22.99879,22.99879,0,0,1-7.51636-5.78114,22.04231,22.04231,0,0,1-4.16218-7.4776,24.80629,24.80629,0,0,1-1.27236-7.47835,24.22709,24.22709,0,0,1,2.38968-11.29318,22.5616,22.5616,0,0,1,6.01294-7.43959,23.60472,23.60472,0,0,1,7.863-4.12416,27.72854,27.72854,0,0,1,7.94049-1.27161H537.608V95.66135H488.50189a6.85269,6.85269,0,0,0-2.42843.3466,2.86344,2.86344,0,0,0-1.31037.925,2.56492,2.56492,0,0,0-.5009,1.23359,10.744,10.744,0,0,0-.07751,1.27236,4.57855,4.57855,0,0,0,.46287,1.92679,2.41292,2.41292,0,0,0,.96377,1.00253,3.08353,3.08353,0,0,0,1.31037.3466c.48748.02684.96377.03876,1.42591.03876h31.06724a28.38586,28.38586,0,0,1,13.10519,2.775,26.08815,26.08815,0,0,1,8.7112,6.97671,27.70791,27.70791,0,0,1,4.8181,9.13532A31.62016,31.62016,0,0,1,547.55276,130.814Z"/><path class="cls-6" d="M579.3296,58.50439H559.28571V40.388H579.3296Zm0,100.44752H559.28571V75.61821H579.3296Z"/><path class="cls-7" d="M668.77836,59.50617H623.60414q-4.08651,0-6.16723,2.04308a8.00558,8.00558,0,0,0-2.08109,5.97418v91.42848H595.31193V67.52343a30.20638,30.20638,0,0,1,1.31112-9.25085,26.48423,26.48423,0,0,1,3.507-7.20778,24.3083,24.3083,0,0,1,5.04992-5.319,29.2228,29.2228,0,0,1,5.97418-3.58451,30.91439,30.91439,0,0,1,6.28277-2.04307,29.694,29.694,0,0,1,6.01294-.65519h45.32851Zm28.83186,99.44574H677.56708l-.15429-63.29056H623.44985V75.61821h74.31466Zm0-99.44574H677.56708V39.77162h20.04314Z"/><path class="cls-8" d="M803.335,103.21573a31.00749,31.00749,0,0,1-1.46467,8.981,26.849,26.849,0,0,1-4.74133,8.943,26.44189,26.44189,0,0,1-8.55691,6.89919,27.304,27.304,0,0,1-12.83536,2.775H739.58156V111.77338h36.15517a8.03056,8.03056,0,0,0,6.32153-2.50595,8.98057,8.98057,0,0,0,2.23538-6.20525,7.84306,7.84306,0,0,0-2.50521-6.16724,8.77735,8.77735,0,0,0-6.0517-2.23612H739.58156A8.03233,8.03233,0,0,0,733.26,97.16477a8.97836,8.97836,0,0,0-2.23538,6.20525v27.98362a7.93462,7.93462,0,0,0,2.50521,6.24476,8.97764,8.97764,0,0,0,6.206,2.23538h36.00088v19.11813H739.58156a30.96522,30.96522,0,0,1-8.981-1.46466,26.79184,26.79184,0,0,1-8.94227-4.74134,26.41029,26.41029,0,0,1-6.89919-8.5569,27.28857,27.28857,0,0,1-2.77578-12.83537V103.21573a30.98559,30.98559,0,0,1,1.46466-8.98029,26.83,26.83,0,0,1,4.74134-8.943,26.44554,26.44554,0,0,1,8.55691-6.89919,27.29768,27.29768,0,0,1,12.83536-2.775h36.15517a31.01937,31.01937,0,0,1,8.981,1.46466A26.865,26.865,0,0,1,793.66,81.82346a26.47133,26.47133,0,0,1,6.89994,8.5569A27.30613,27.30613,0,0,1,803.335,103.21573Z"/><path class="cls-9" d="M887.92093,95.66135H842.82349q-4.08764,0-6.16724,2.04307a8.00476,8.00476,0,0,0-2.08183,5.97418v55.27331H814.53128V103.6786a30.22973,30.22973,0,0,1,1.31037-9.25085A26.48587,26.48587,0,0,1,819.34939,87.22a24.32307,24.32307,0,0,1,5.04917-5.319,29.20774,29.20774,0,0,1,5.97493-3.58451,30.65265,30.65265,0,0,1,6.32152-2.04307,29.92228,29.92228,0,0,1,5.97419-.65518h45.25173Z"/></g></svg>