<svg xmlns="http://www.w3.org/2000/svg" viewBox="0 0 162.8895 162.29787"><defs><style>.cls-1,.cls-2,.cls-8{fill:#a4bfe6;}.cls-2,.cls-8{font-size:15.10142px;font-family:Rajdhani-Medium, Rajdhani;font-weight:500;}.cls-2{letter-spacing:0.01889em;}.cls-3{letter-spacing:0.01572em;}.cls-4{letter-spacing:-0.02689em;}.cls-5{letter-spacing:0.04168em;}.cls-6{letter-spacing:0.01569em;}.cls-7{letter-spacing:0.02501em;}.cls-8{letter-spacing:0.02361em;}.cls-9{letter-spacing:0.03878em;}.cls-10{letter-spacing:0.03821em;}.cls-11{letter-spacing:0.0132em;}.cls-12{letter-spacing:0.01648em;}.cls-13{letter-spacing:0.02711em;}.cls-14{fill:#2f317e;}</style></defs><g id="ONLYMECHANICS"><rect id="Border" class="cls-1" x="24.3596" y="23.76797" width="114.76193" height="114.76193" transform="translate(-33.43971 81.56728) rotate(-45)"/><g id="Text"><text class="cls-2" transform="translate(8.77181 62.6782) rotate(-45) scale(1.18306 1)">O<tspan class="cls-3" x="8.63635" y="0">N</tspan><tspan class="cls-4" x="17.64745" y="0">L</tspan><tspan class="cls-5" x="24.05176" y="0">Y</tspan><tspan class="cls-6" x="32.23204" y="0">M</tspan><tspan class="cls-7" x="43.11529" y="0">E</tspan></text><text class="cls-8" transform="translate(109.81867 17.78751) rotate(44.99999) scale(1.18306 1)">C<tspan class="cls-9" x="8.52615" y="0">H</tspan><tspan class="cls-10" x="17.74981" y="0">A</tspan><tspan class="cls-11" x="26.4815" y="0">N</tspan><tspan class="cls-12" x="35.45463" y="0">I</tspan><tspan class="cls-13" x="39.34295" y="0">C</tspan><tspan class="cls-7" x="47.92192" y="0">S</tspan></text></g><g id="Outer"><rect class="cls-1" x="40.85948" y="129.89108" width="1.26377" height="26.86191" transform="translate(-89.19144 71.31687) rotate(-45)"/><rect class="cls-1" x="108.55882" y="142.69015" width="26.86191" height="1.26377" transform="translate(-65.614 128.23785) rotate(-45)"/></g><g id="Logo"><g id="Face"><polygon class="cls-14" points="81.445 81.149 76.762 103.319 81.445 111.489 86.128 103.319 81.445 81.149"/><polygon class="cls-14" points="78.557 115.489 63.116 94.383 67.085 109.452 78.557 115.489"/><polygon class="cls-14" points="84.332 115.489 99.774 94.383 95.805 109.452 84.332 115.489"/></g><g id="Wings"><g id="Right_Wing" data-name="Right Wing"><polyline class="cls-14" points="103.219 91.918 99.666 105.86 119.716 85.489"/><polyline class="cls-14" points="93.535 85.319 101.318 90.617 122.195 82.798"/><polygon class="cls-14" points="104.514 82.798 122.769 81.021 126.567 72.596 104.514 82.798"/><polygon class="cls-14" points="122.695 56.915 120.822 72.404 100.941 82.798 122.695 56.915"/></g><g id="Right_Wing-2" data-name="Right Wing"><polyline class="cls-14" points="59.67 91.918 63.224 105.86 43.173 85.489"/><polyline class="cls-14" points="69.354 85.319 61.572 90.617 40.695 82.798"/><polygon class="cls-14" points="58.376 82.798 40.12 81.021 36.322 72.596 58.376 82.798"/><polygon class="cls-14" points="40.195 56.915 42.067 72.404 61.949 82.798 40.195 56.915"/></g></g></g></g></svg>